<svg width="56" height="41" viewBox="0 0 56 41" fill="none" xmlns="http://www.w3.org/2000/svg">
<path d="M0.222412 20.5829H16.2224" stroke="#F5F5F5"/>
<path d="M55.4685 20.5829C55.4685 31.3554 46.7919 40.0829 36.0955 40.0829C25.399 40.0829 16.7224 31.3554 16.7224 20.5829C16.7224 9.81033 25.399 1.08289 36.0955 1.08289C46.7919 1.08289 55.4685 9.81033 55.4685 20.5829Z" stroke="#F5F5F5"/>
<path d="M38.8297 20.8506C38.7977 20.8666 38.7817 20.8826 38.7817 20.8986C38.7817 20.9146 38.7977 20.9306 38.8297 20.9466C39.6937 21.3146 40.3577 21.8506 40.8217 22.5546C41.3017 23.2586 41.5417 24.0986 41.5417 25.0746C41.5417 26.4826 41.0937 27.5946 40.1977 28.4106C39.3177 29.2106 38.1497 29.6106 36.6937 29.6106H31.0057C30.8457 29.6106 30.7657 29.5306 30.7657 29.3706V13.0506C30.7657 12.8906 30.8457 12.8106 31.0057 12.8106H36.5257C38.0137 12.8106 39.1897 13.1946 40.0537 13.9626C40.9177 14.7306 41.3497 15.7946 41.3497 17.1546C41.3497 18.0506 41.1337 18.8106 40.7017 19.4346C40.2697 20.0586 39.6457 20.5306 38.8297 20.8506ZM32.1337 13.9386C32.0697 13.9386 32.0377 13.9706 32.0377 14.0346V20.3226C32.0377 20.3866 32.0697 20.4186 32.1337 20.4186H36.5257C37.6137 20.4186 38.4777 20.1306 39.1177 19.5546C39.7737 18.9626 40.1017 18.1866 40.1017 17.2266C40.1017 16.2346 39.7737 15.4426 39.1177 14.8506C38.4777 14.2426 37.6137 13.9386 36.5257 13.9386H32.1337ZM36.6937 28.4586C37.7817 28.4586 38.6457 28.1466 39.2857 27.5226C39.9417 26.8826 40.2697 26.0426 40.2697 25.0026C40.2697 23.9306 39.9337 23.0826 39.2617 22.4586C38.5897 21.8186 37.6937 21.4986 36.5737 21.4986H32.1337C32.0697 21.4986 32.0377 21.5306 32.0377 21.5946V28.3626C32.0377 28.4266 32.0697 28.4586 32.1337 28.4586H36.6937Z" fill="#F5F5F5"/>
</svg>
