<svg width="48" height="48" viewBox="0 0 48 48" fill="none" xmlns="http://www.w3.org/2000/svg">
<path d="M24.0001 4.49341C19.251 4.49361 14.657 6.18364 11.04 9.2611C7.42299 12.3386 5.01906 16.6027 4.25832 21.2904C3.49759 25.9781 4.42969 30.7836 6.88785 34.8469C9.34602 38.9103 13.1698 41.9664 17.6751 43.4684C18.6751 43.6434 19.0501 43.0434 19.0501 42.5184C19.0501 42.0434 19.0251 40.4684 19.0251 38.7934C14.0001 39.7184 12.7001 37.5685 12.3001 36.4435C11.8562 35.3493 11.1526 34.3797 10.2501 33.6184C9.55005 33.2434 8.55005 32.3184 10.225 32.2934C10.8646 32.3629 11.478 32.5854 12.0133 32.9422C12.5486 33.2991 12.99 33.7797 13.3001 34.3434C13.5736 34.8348 13.9414 35.2674 14.3824 35.6164C14.8235 35.9654 15.329 36.2239 15.8701 36.3772C16.4112 36.5305 16.9773 36.5755 17.5358 36.5096C18.0943 36.4438 18.6344 36.2683 19.125 35.9934C19.2116 34.9766 19.6647 34.026 20.4001 33.3185C15.9501 32.8185 11.3001 31.0934 11.3001 23.4435C11.2719 21.4558 12.0054 19.5326 13.3501 18.0685C12.7386 16.3409 12.8102 14.445 13.5501 12.7685C13.5501 12.7685 15.225 12.2434 19.0501 14.8185C22.3226 13.9184 25.7775 13.9184 29.0501 14.8185C32.875 12.2185 34.5501 12.7685 34.5501 12.7685C35.29 14.445 35.3616 16.3409 34.7501 18.0685C36.0987 19.5301 36.8328 21.4549 36.8001 23.4435C36.8001 31.1184 32.125 32.8185 27.6751 33.3185C28.1524 33.8022 28.52 34.3831 28.7529 35.0215C28.9858 35.6599 29.0787 36.341 29.0251 37.0185C29.0251 39.6935 29 41.8434 29 42.5185C29 43.0435 29.375 43.6685 30.375 43.4685C34.8724 41.9542 38.6852 38.8909 41.1329 34.8255C43.5806 30.7601 44.5038 25.9571 43.7378 21.2739C42.9718 16.5907 40.5664 12.3322 36.951 9.25843C33.3356 6.18471 28.7455 4.49588 24.0001 4.49341Z" fill="black"/>
</svg>
