<svg width="48" height="48" viewBox="0 0 48 48" fill="none" xmlns="http://www.w3.org/2000/svg">
<path d="M40.94 3.99997H7.06C6.67915 3.99469 6.301 4.06447 5.94713 4.20534C5.59326 4.34621 5.2706 4.55542 4.99759 4.821C4.72458 5.08658 4.50656 5.40334 4.35598 5.75319C4.2054 6.10304 4.12521 6.47913 4.12 6.85997V41.14C4.12521 41.5208 4.2054 41.8969 4.35598 42.2468C4.50656 42.5966 4.72458 42.9134 4.99759 43.1789C5.2706 43.4445 5.59326 43.6537 5.94713 43.7946C6.301 43.9355 6.67915 44.0053 7.06 44H40.94C41.3208 44.0053 41.699 43.9355 42.0529 43.7946C42.4067 43.6537 42.7294 43.4445 43.0024 43.1789C43.2754 42.9134 43.4934 42.5966 43.644 42.2468C43.7946 41.8969 43.8748 41.5208 43.88 41.14V6.85997C43.8748 6.47913 43.7946 6.10304 43.644 5.75319C43.4934 5.40334 43.2754 5.08658 43.0024 4.821C42.7294 4.55542 42.4067 4.34621 42.0529 4.20534C41.699 4.06447 41.3208 3.99469 40.94 3.99997ZM16.18 37.48H10.18V19.48H16.18V37.48ZM13.18 16.96C12.3525 16.96 11.5589 16.6313 10.9738 16.0461C10.3887 15.461 10.06 14.6674 10.06 13.84C10.06 13.0125 10.3887 12.2189 10.9738 11.6338C11.5589 11.0487 12.3525 10.72 13.18 10.72C13.6194 10.6701 14.0643 10.7137 14.4857 10.8477C14.9071 10.9818 15.2955 11.2034 15.6253 11.4979C15.9551 11.7924 16.219 12.1533 16.3997 12.5569C16.5804 12.9605 16.6738 13.3978 16.6738 13.84C16.6738 14.2822 16.5804 14.7194 16.3997 15.123C16.219 15.5266 15.9551 15.8875 15.6253 16.1821C15.2955 16.4766 14.9071 16.6981 14.4857 16.8322C14.0643 16.9663 13.6194 17.0098 13.18 16.96ZM37.82 37.48H31.82V27.82C31.82 25.4 30.96 23.82 28.78 23.82C28.1053 23.8249 27.4484 24.0365 26.8977 24.4263C26.347 24.8161 25.929 25.3653 25.7 26C25.5435 26.4701 25.4757 26.9651 25.5 27.46V37.46H19.5C19.5 37.46 19.5 21.1 19.5 19.46H25.5V22C26.0451 21.0542 26.8378 20.275 27.7929 19.7464C28.7479 19.2177 29.8291 18.9597 30.92 19C34.92 19 37.82 21.58 37.82 27.12V37.48Z" fill="black"/>
</svg>
