<svg width="100" height="40" viewBox="0 0 100 40" fill="none" xmlns="http://www.w3.org/2000/svg">
<rect width="1.23663" height="61.8316" transform="matrix(0.716963 0.697111 -0.716963 0.697111 3.90723 -2.25024)" fill="#FE6666" fill-opacity="0.18"/>
<rect width="1.23663" height="61.8316" transform="matrix(0.716963 0.697111 -0.716963 0.697111 7.66882 -2.25024)" fill="#FE6666" fill-opacity="0.18"/>
<rect width="1.23663" height="61.8316" transform="matrix(0.716963 0.697111 -0.716963 0.697111 11.4305 -2.25024)" fill="#FE6666" fill-opacity="0.18"/>
<rect width="1.23663" height="61.8316" transform="matrix(0.716963 0.697111 -0.716963 0.697111 15.192 -2.25024)" fill="#FE6666" fill-opacity="0.18"/>
<rect width="1.23663" height="61.8316" transform="matrix(0.716963 0.697111 -0.716963 0.697111 18.9537 -2.25024)" fill="#FE6666" fill-opacity="0.18"/>
<rect width="1.23663" height="61.8316" transform="matrix(0.716963 0.697111 -0.716963 0.697111 22.7152 -2.25024)" fill="#FE6666" fill-opacity="0.18"/>
<rect width="1.23663" height="61.8316" transform="matrix(0.716963 0.697111 -0.716963 0.697111 26.4769 -2.25024)" fill="#FE6666" fill-opacity="0.18"/>
<rect width="1.23663" height="61.8316" transform="matrix(0.716963 0.697111 -0.716963 0.697111 30.2385 -2.25024)" fill="#FE6666" fill-opacity="0.18"/>
<rect width="1.23663" height="61.8316" transform="matrix(0.716963 0.697111 -0.716963 0.697111 34.0001 -2.25024)" fill="#FE6666" fill-opacity="0.18"/>
<rect width="1.23663" height="61.8316" transform="matrix(0.716963 0.697111 -0.716963 0.697111 37.7617 -2.25024)" fill="#FE6666" fill-opacity="0.18"/>
<rect width="1.23663" height="61.8316" transform="matrix(0.716963 0.697111 -0.716963 0.697111 41.5234 -2.25024)" fill="#FE6666" fill-opacity="0.18"/>
<rect width="1.23663" height="61.8316" transform="matrix(0.716963 0.697111 -0.716963 0.697111 45.2849 -2.25024)" fill="#FE6666" fill-opacity="0.18"/>
<rect width="1.23663" height="61.8316" transform="matrix(0.716963 0.697111 -0.716963 0.697111 49.0466 -2.25024)" fill="#FE6666" fill-opacity="0.18"/>
<rect width="1.23663" height="61.8316" transform="matrix(0.716963 0.697111 -0.716963 0.697111 52.8081 -2.25024)" fill="#FE6666" fill-opacity="0.18"/>
<rect width="1.23663" height="61.8316" transform="matrix(0.716963 0.697111 -0.716963 0.697111 56.5698 -2.25024)" fill="#FE6666" fill-opacity="0.18"/>
<rect width="1.23663" height="61.8316" transform="matrix(0.716963 0.697111 -0.716963 0.697111 60.3314 -2.25024)" fill="#FE6666" fill-opacity="0.18"/>
<rect width="1.23663" height="61.8316" transform="matrix(0.716963 0.697111 -0.716963 0.697111 64.093 -2.25024)" fill="#FE6666" fill-opacity="0.18"/>
<rect width="1.23663" height="61.8316" transform="matrix(0.716963 0.697111 -0.716963 0.697111 67.8546 -2.25024)" fill="#FE6666" fill-opacity="0.18"/>
<rect width="1.23663" height="61.8316" transform="matrix(0.716963 0.697111 -0.716963 0.697111 71.6161 -2.25024)" fill="#FE6666" fill-opacity="0.18"/>
<rect width="1.23663" height="61.8316" transform="matrix(0.716963 0.697111 -0.716963 0.697111 75.3778 -2.25024)" fill="#FE6666" fill-opacity="0.18"/>
<rect width="1.23663" height="61.8316" transform="matrix(0.716963 0.697111 -0.716963 0.697111 79.1394 -2.25024)" fill="#FE6666" fill-opacity="0.18"/>
<rect width="1.23663" height="61.8316" transform="matrix(0.716963 0.697111 -0.716963 0.697111 82.901 -2.25024)" fill="#FE6666" fill-opacity="0.18"/>
<rect width="1.23663" height="61.8316" transform="matrix(0.716963 0.697111 -0.716963 0.697111 86.6626 -2.25024)" fill="#FE6666" fill-opacity="0.18"/>
<rect width="1.23663" height="61.8316" transform="matrix(0.716963 0.697111 -0.716963 0.697111 90.4242 -2.25024)" fill="#FE6666" fill-opacity="0.18"/>
<rect width="1.23663" height="61.8316" transform="matrix(0.716963 0.697111 -0.716963 0.697111 94.1858 -2.25024)" fill="#FE6666" fill-opacity="0.18"/>
<rect width="1.23663" height="61.8316" transform="matrix(0.716963 0.697111 -0.716963 0.697111 97.9474 -2.25024)" fill="#FE6666" fill-opacity="0.18"/>
<rect width="1.23663" height="61.8316" transform="matrix(0.716963 0.697111 -0.716963 0.697111 101.709 -2.25024)" fill="#FE6666" fill-opacity="0.18"/>
<rect width="1.23663" height="61.8316" transform="matrix(0.716963 0.697111 -0.716963 0.697111 105.471 -2.25024)" fill="#FE6666" fill-opacity="0.18"/>
<rect width="1.23663" height="61.8316" transform="matrix(0.716963 0.697111 -0.716963 0.697111 109.232 -2.25024)" fill="#FE6666" fill-opacity="0.18"/>
<rect width="1.23663" height="61.8316" transform="matrix(0.716963 0.697111 -0.716963 0.697111 112.994 -2.25024)" fill="#FE6666" fill-opacity="0.18"/>
<rect width="1.23663" height="61.8316" transform="matrix(0.716963 0.697111 -0.716963 0.697111 116.755 -2.25024)" fill="#FE6666" fill-opacity="0.18"/>
<rect width="1.23663" height="61.8316" transform="matrix(0.716963 0.697111 -0.716963 0.697111 120.517 -2.25024)" fill="#FE6666" fill-opacity="0.18"/>
<rect width="1.23663" height="61.8316" transform="matrix(0.716963 0.697111 -0.716963 0.697111 124.279 -2.25024)" fill="#FE6666" fill-opacity="0.18"/>
<rect width="1.23663" height="61.8316" transform="matrix(0.716963 0.697111 -0.716963 0.697111 128.04 -2.25024)" fill="#FE6666" fill-opacity="0.18"/>
<rect width="1.23663" height="61.8316" transform="matrix(0.716963 0.697111 -0.716963 0.697111 131.802 -2.25024)" fill="#FE6666" fill-opacity="0.18"/>
<rect width="1.23663" height="61.8316" transform="matrix(0.716963 0.697111 -0.716963 0.697111 135.563 -2.25024)" fill="#FE6666" fill-opacity="0.18"/>
<rect width="1.23663" height="61.8316" transform="matrix(0.716963 0.697111 -0.716963 0.697111 139.325 -2.25024)" fill="#FE6666" fill-opacity="0.18"/>
</svg>
