<svg width="48" height="48" viewBox="0 0 48 48" fill="none" xmlns="http://www.w3.org/2000/svg">
<path d="M44 11.6C42.4967 12.2522 40.9069 12.6833 39.28 12.88C40.9963 11.8546 42.2825 10.2416 42.9 8.33999C41.2871 9.30012 39.5215 9.97659 37.68 10.34C36.4491 9.00514 34.8099 8.11658 33.0196 7.81369C31.2293 7.51081 29.3891 7.81071 27.7876 8.66637C26.1861 9.52203 24.9139 10.8851 24.1705 12.5417C23.4271 14.1983 23.2546 16.0548 23.68 17.82C20.4189 17.655 17.2289 16.8059 14.3173 15.3277C11.4057 13.8495 8.83769 11.7754 6.78 9.23999C6.05828 10.5003 5.67904 11.9276 5.68 13.38C5.67744 14.7288 6.00843 16.0572 6.64351 17.2471C7.27859 18.437 8.19804 19.4514 9.32 20.2C8.01595 20.1645 6.73977 19.8146 5.6 19.18V19.28C5.60977 21.1698 6.27199 22.9982 7.47463 24.4559C8.67727 25.9137 10.3465 26.9113 12.2 27.28C11.4865 27.4971 10.7457 27.6116 10 27.62C9.48378 27.614 8.96884 27.5671 8.46 27.48C8.98782 29.1056 10.0092 30.5263 11.3821 31.5443C12.7551 32.5623 14.4112 33.1271 16.12 33.16C13.2344 35.4305 9.67177 36.6697 6 36.68C5.33147 36.6822 4.66347 36.6421 4 36.56C7.74886 38.9805 12.1176 40.2654 16.58 40.26C19.6594 40.292 22.7143 39.71 25.5662 38.5482C28.4182 37.3863 31.01 35.6678 33.1904 33.493C35.3708 31.3182 37.0959 28.7308 38.2651 25.8818C39.4343 23.0328 40.0241 19.9794 40 16.9C40 16.56 40 16.2 40 15.84C41.5694 14.6696 42.923 13.2348 44 11.6Z" fill="black"/>
</svg>
