<svg width="51" height="55" viewBox="0 0 51 55" fill="none" xmlns="http://www.w3.org/2000/svg">
<path d="M50.8259 38.4998V12.8333L28.0024 0V9.85413L36.9436 14.8958C37.2965 15.1249 37.2965 15.5833 36.9436 15.6979L26.3553 21.6562C26.0024 21.8853 25.6495 21.7707 25.4142 21.6562L14.8259 15.6979C14.473 15.5833 14.473 15.0104 14.8259 14.8958L23.7671 9.85413V0L0.825928 12.8333V38.4998L9.53181 33.5728V23.4895C9.53181 23.1457 10.0024 22.9166 10.2377 23.0312L20.8259 28.9895C21.1789 29.2186 21.2965 29.4478 21.2965 29.7915V41.7082C21.2965 42.0519 20.8259 42.2811 20.5906 42.1665L11.6495 37.1249L2.94357 42.0519L25.7671 54.9998L48.5906 42.1665L39.8848 37.2394L30.9436 42.2811C30.5906 42.5102 30.2377 42.2811 30.2377 41.8227V29.9061C30.2377 29.5624 30.473 29.2186 30.7083 29.104L41.2965 23.1457C41.6495 22.9166 42.0024 23.1457 42.0024 23.6041V33.6874L50.8259 38.4998Z" fill="#4C4C4C"/>
<path d="M25.7671 54.9998L48.5906 42.1665L39.8848 37.2394L30.9436 42.2811C30.5906 42.5102 30.2377 42.2811 30.2377 41.8227V29.9061C30.2377 29.5624 30.473 29.2186 30.7083 29.104L41.2965 23.1457C41.6495 22.9166 42.0024 23.1457 42.0024 23.6041V33.6874L50.7082 38.6147V12.8336L25.7671 26.9272L25.7671 54.9998Z" fill="black"/>
<path d="M28.0024 0V9.85413L36.9436 14.8958C37.2965 15.1249 37.2965 15.5833 36.9436 15.6979L26.3553 21.6562C26.0024 21.8853 25.6495 21.7707 25.4142 21.6562L14.8259 15.6979C14.473 15.5833 14.473 15.0104 14.8259 14.8958L23.7671 9.85413V0L0.825928 12.8333L25.7671 26.9272L50.7082 12.8336L28.0024 0Z" fill="#808080"/>
<path d="M20.7083 42.2813L11.7671 37.2397L3.06122 42.1667L25.8847 55V26.9272L0.825928 12.8333V38.4998L9.53181 33.5728V23.4895C9.53181 23.1457 10.0024 22.9166 10.2377 23.0312L20.8259 28.9895C21.1789 29.2186 21.2965 29.4478 21.2965 29.7915V41.7082C21.4142 42.1665 21.0612 42.5105 20.7083 42.2813Z" fill="#4C4C4C"/>
</svg>
