<svg width="58" height="40" viewBox="0 0 58 40" fill="none" xmlns="http://www.w3.org/2000/svg">
<path d="M41.3416 20C41.3416 30.7726 32.665 39.5 21.9685 39.5C11.2721 39.5 2.59546 30.7726 2.59546 20C2.59546 9.22744 11.2721 0.5 21.9685 0.5C32.665 0.5 41.3416 9.22744 41.3416 20Z" stroke="#F5F5F5"/>
<path d="M41.8416 20H57.8416" stroke="#F5F5F5"/>
<path d="M19.9974 29.4865C19.8374 29.4865 19.7574 29.4065 19.7574 29.2465V21.8544C19.7574 21.7904 19.7494 21.7504 19.7334 21.7344L14.7174 12.9744C14.6854 12.9104 14.6694 12.8624 14.6694 12.8305C14.6694 12.7344 14.7414 12.6864 14.8854 12.6864H15.7014C15.8134 12.6864 15.9094 12.7424 15.9894 12.8544L20.3094 20.3905C20.3254 20.4064 20.3494 20.4144 20.3814 20.4144C20.4134 20.4144 20.4374 20.4064 20.4534 20.3905L24.7734 12.8544C24.8534 12.7424 24.9494 12.6864 25.0614 12.6864H25.8774C25.9734 12.6864 26.0374 12.7184 26.0694 12.7824C26.1014 12.8304 26.0934 12.8944 26.0454 12.9744L21.0294 21.7344C21.0134 21.7504 21.0054 21.7904 21.0054 21.8544V29.2465C21.0054 29.4065 20.9254 29.4865 20.7654 29.4865H19.9974Z" fill="#F5F5F5"/>
</svg>
